<svg viewBox=" 0 10 70 20" xmlns="http://www.w3.org/2000/svg">
  <g mask="url(#mask0)">
    <path d="M47.0305 3H46.2595V5.34375C46.2595 6.11719 45.7391 6.75 45.103 6.75H41.2481C40.612 6.75 40.0916 6.11719 40.0916 5.34375V3H9.2519V5.34375C9.2519 6.11719 8.73149 6.75 8.09542 6.75H4.24046C3.60439 6.75 3.08397 6.11719 3.08397 5.34375V3H2.31298C1.0312 3 0 4.25391 0 5.8125V45.1875C0 46.7461 1.0312 48 2.31298 48H3.08397V45.6562C3.08397 44.8828 3.60439 44.25 4.24046 44.25H8.09542C8.73149 44.25 9.2519 44.8828 9.2519 45.6562V48H40.0916V45.6562C40.0916 44.8828 40.612 44.25 41.2481 44.25H45.103C45.7391 44.25 46.2595 44.8828 46.2595 45.6562V48H47.0305C48.3123 48 49.3435 46.7461 49.3435 45.1875V5.8125C49.3435 4.25391 48.3123 3 47.0305 3ZM9.2519 39.0937C9.2519 39.8672 8.73149 40.5 8.09542 40.5H4.24046C3.60439 40.5 3.08397 39.8672 3.08397 39.0937V34.4063C3.08397 33.6328 3.60439 33 4.24046 33H8.09542C8.73149 33 9.2519 33.6328 9.2519 34.4063V39.0937ZM9.2519 27.8437C9.2519 28.6172 8.73149 29.25 8.09542 29.25H4.24046C3.60439 29.25 3.08397 28.6172 3.08397 27.8437V23.1562C3.08397 22.3828 3.60439 21.75 4.24046 21.75H8.09542C8.73149 21.75 9.2519 22.3828 9.2519 23.1562V27.8437ZM9.2519 16.5938C9.2519 17.3672 8.73149 18 8.09542 18H4.24046C3.60439 18 3.08397 17.3672 3.08397 16.5938V11.9063C3.08397 11.1328 3.60439 10.5 4.24046 10.5H8.09542C8.73149 10.5 9.2519 11.1328 9.2519 11.9063V16.5938ZM35.4656 40.9687C35.4656 41.7422 34.9452 42.375 34.3091 42.375H15.0343C14.3983 42.375 13.8779 41.7422 13.8779 40.9687V29.7187C13.8779 28.9453 14.3983 28.3125 15.0343 28.3125H34.3091C34.9452 28.3125 35.4656 28.9453 35.4656 29.7187V40.9687ZM35.4656 21.2812C35.4656 22.0547 34.9452 22.6875 34.3091 22.6875H15.0343C14.3983 22.6875 13.8779 22.0547 13.8779 21.2812V10.0312C13.8779 9.25781 14.3983 8.625 15.0343 8.625H34.3091C34.9452 8.625 35.4656 9.25781 35.4656 10.0312V21.2812ZM46.2595 39.0937C46.2595 39.8672 45.7391 40.5 45.103 40.5H41.2481C40.612 40.5 40.0916 39.8672 40.0916 39.0937V34.4063C40.0916 33.6328 40.612 33 41.2481 33H45.103C45.7391 33 46.2595 33.6328 46.2595 34.4063V39.0937ZM46.2595 27.8437C46.2595 28.6172 45.7391 29.25 45.103 29.25H41.2481C40.612 29.25 40.0916 28.6172 40.0916 27.8437V23.1562C40.0916 22.3828 40.612 21.75 41.2481 21.75H45.103C45.7391 21.75 46.2595 22.3828 46.2595 23.1562V27.8437ZM46.2595 16.5938C46.2595 17.3672 45.7391 18 45.103 18H41.2481C40.612 18 40.0916 17.3672 40.0916 16.5938V11.9063C40.0916 11.1328 40.612 10.5 41.2481 10.5H45.103C45.7391 10.5 46.2595 11.1328 46.2595 11.9063V16.5938Z" fill="white"/>
  </g>
</svg>
